<svg width="67" height="80" viewBox="0 0 67 80" fill="none" xmlns="http://www.w3.org/2000/svg">
<g clip-path="url(#clip0_220_17340)">
<path d="M66.5084 30.5602C65.9578 24.7515 63.9329 19.1864 60.6309 14.4067C57.3289 9.62693 52.8623 5.79555 47.666 3.28561C42.4698 0.775659 36.7209 -0.327312 30.9794 0.0840955C25.2378 0.495503 19.6992 2.40727 14.9028 5.63323C10.7821 8.42666 7.32291 12.1107 4.77357 16.4206C2.22423 20.7305 0.648066 25.5594 0.158304 30.5602C-0.322136 35.5284 0.294274 40.5426 1.96281 45.2392C3.63136 49.9359 6.31018 54.197 9.80494 57.7136L30.5884 78.824C30.9529 79.1967 31.3866 79.4924 31.8645 79.6943C32.3423 79.8961 32.8549 80 33.3725 80C33.8902 80 34.4028 79.8961 34.8806 79.6943C35.3585 79.4924 35.7922 79.1967 36.1567 78.824L56.8617 57.7136C60.3565 54.197 63.0353 49.9359 64.7038 45.2392C66.3724 40.5426 66.9888 35.5284 66.5084 30.5602Z" fill="#FFBC57"/>
<circle cx="33.3315" cy="33.3333" r="25.8667" fill="white"/>
<path d="M17.2427 29.5466V43.6266C17.2427 44.0106 16.982 44.2666 16.5909 44.2666H13.9838C13.5927 44.2666 13.332 44.0106 13.332 43.6266V29.5466C13.332 29.1626 13.5927 28.9066 13.9838 28.9066H16.5909C16.982 28.9066 17.2427 29.2266 17.2427 29.5466ZM52.6803 28.9066H50.0731C49.6821 28.9066 49.4213 29.1626 49.4213 29.5466V43.6266C49.4213 44.0106 49.6821 44.2666 50.0731 44.2666H52.6803C53.0713 44.2666 53.332 44.0106 53.332 43.6266V29.5466C53.332 29.2266 53.0713 28.9066 52.6803 28.9066Z" fill="#FFBC57"/>
<path d="M48.1184 33.3866V37.2266C48.1184 37.6106 47.8577 37.8666 47.4666 37.8666H19.1987C18.8076 37.8666 18.5469 37.6106 18.5469 37.2266V33.3866C18.5469 33.0026 18.8076 32.7466 19.1987 32.7466H47.4666C47.8577 32.7466 48.1184 33.0026 48.1184 33.3866ZM19.1987 31.4666H26.8832C27.2743 31.4666 27.535 31.2106 27.535 30.8266V22.5066C27.535 22.1226 27.2743 21.8666 26.8832 21.8666H19.1987C18.8076 21.8666 18.5469 22.1226 18.5469 22.5066V30.8266C18.5469 31.2106 18.8076 31.4666 19.1987 31.4666ZM29.4903 31.4666H37.1749C37.566 31.4666 37.8267 31.2106 37.8267 30.8266V22.5066C37.8267 22.1226 37.566 21.8666 37.1749 21.8666H29.4903C29.0993 21.8666 28.8386 22.1226 28.8386 22.5066V30.8266C28.8386 31.2106 29.0993 31.4666 29.4903 31.4666ZM47.4666 21.8666H39.782C39.391 21.8666 39.1303 22.1226 39.1303 22.5066V30.8266C39.1303 31.2106 39.391 31.4666 39.782 31.4666H47.4666C47.8577 31.4666 48.1184 31.2106 48.1184 30.8266V22.5066C48.1184 22.1226 47.8577 21.8666 47.4666 21.8666ZM47.4666 39.1466H19.1987C18.8076 39.1466 18.5469 39.4026 18.5469 39.7866V43.6266C18.5469 44.0106 18.8076 44.2666 19.1987 44.2666H22.9725C23.3636 44.2666 23.6243 44.0106 23.6243 43.6266V42.9866H43.0409V43.6266C43.0409 44.0106 43.3017 44.2666 43.6927 44.2666H47.4666C47.8577 44.2666 48.1184 44.0106 48.1184 43.6266V39.7866C48.1184 39.4026 47.8577 39.1466 47.4666 39.1466Z" fill="#FFBC57"/>
</g>
<defs>
<clipPath id="clip0_220_17340">
<rect width="66.6667" height="80" fill="white"/>
</clipPath>
</defs>
</svg>
