<svg width="28" height="31" viewBox="0 0 28 31" fill="none" xmlns="http://www.w3.org/2000/svg">
<g filter="url(#filter0_dd_18_20704)">
<path d="M14 17C16.7614 17 19 14.7614 19 12C19 9.23858 16.7614 7 14 7C11.2386 7 9 9.23858 9 12C9 14.7614 11.2386 17 14 17Z" stroke="#28303F" stroke-width="1.5"/>
<path d="M14.75 2C14.75 1.58579 14.4142 1.25 14 1.25C13.5858 1.25 13.25 1.58579 13.25 2H14.75ZM13.25 4C13.25 4.41421 13.5858 4.75 14 4.75C14.4142 4.75 14.75 4.41421 14.75 4H13.25ZM13.25 2V4H14.75V2H13.25Z" fill="#28303F"/>
<path d="M14.75 20C14.75 19.5858 14.4142 19.25 14 19.25C13.5858 19.25 13.25 19.5858 13.25 20H14.75ZM13.25 22C13.25 22.4142 13.5858 22.75 14 22.75C14.4142 22.75 14.75 22.4142 14.75 22H13.25ZM13.25 20V22H14.75V20H13.25Z" fill="#28303F"/>
<path d="M23.0354 7.6494C23.3941 7.44229 23.517 6.9836 23.3099 6.62488C23.1028 6.26616 22.6441 6.14325 22.2854 6.35036L23.0354 7.6494ZM20.5533 7.35036C20.1946 7.55747 20.0717 8.01616 20.2788 8.37488C20.4859 8.7336 20.9446 8.85651 21.3033 8.6494L20.5533 7.35036ZM22.2854 6.35036L20.5533 7.35036L21.3033 8.6494L23.0354 7.6494L22.2854 6.35036Z" fill="#28303F"/>
<path d="M7.44702 16.6496C7.80574 16.4425 7.92864 15.9838 7.72154 15.6251C7.51443 15.2664 7.05574 15.1435 6.69702 15.3506L7.44702 16.6496ZM4.96497 16.3506C4.60625 16.5577 4.48334 17.0164 4.69045 17.3751C4.89755 17.7338 5.35625 17.8567 5.71497 17.6496L4.96497 16.3506ZM6.69702 15.3506L4.96497 16.3506L5.71497 17.6496L7.44702 16.6496L6.69702 15.3506Z" fill="#28303F"/>
<path d="M5.71497 6.35036C5.35625 6.14325 4.89756 6.26616 4.69045 6.62488C4.48335 6.9836 4.60625 7.44229 4.96497 7.6494L5.71497 6.35036ZM6.69702 8.6494C7.05574 8.85651 7.51444 8.7336 7.72154 8.37488C7.92865 8.01616 7.80574 7.55747 7.44702 7.35036L6.69702 8.6494ZM4.96497 7.6494L6.69702 8.6494L7.44702 7.35036L5.71497 6.35036L4.96497 7.6494Z" fill="#28303F"/>
<path d="M21.3033 15.3506C20.9446 15.1435 20.4859 15.2664 20.2788 15.6251C20.0717 15.9838 20.1946 16.4425 20.5533 16.6496L21.3033 15.3506ZM22.2854 17.6496C22.6441 17.8567 23.1028 17.7338 23.3099 17.3751C23.517 17.0164 23.3941 16.5577 23.0354 16.3506L22.2854 17.6496ZM20.5533 16.6496L22.2854 17.6496L23.0354 16.3506L21.3033 15.3506L20.5533 16.6496Z" fill="#28303F"/>
</g>
<defs>
<filter id="filter0_dd_18_20704" x="-2" y="0" width="32" height="32" filterUnits="userSpaceOnUse" color-interpolation-filters="sRGB">
<feFlood flood-opacity="0" result="BackgroundImageFix"/>
<feColorMatrix in="SourceAlpha" type="matrix" values="0 0 0 0 0 0 0 0 0 0 0 0 0 0 0 0 0 0 127 0" result="hardAlpha"/>
<feOffset dy="4"/>
<feGaussianBlur stdDeviation="2"/>
<feComposite in2="hardAlpha" operator="out"/>
<feColorMatrix type="matrix" values="0 0 0 0 0 0 0 0 0 0 0 0 0 0 0 0 0 0 0.25 0"/>
<feBlend mode="normal" in2="BackgroundImageFix" result="effect1_dropShadow_18_20704"/>
<feColorMatrix in="SourceAlpha" type="matrix" values="0 0 0 0 0 0 0 0 0 0 0 0 0 0 0 0 0 0 127 0" result="hardAlpha"/>
<feOffset dy="4"/>
<feGaussianBlur stdDeviation="2"/>
<feComposite in2="hardAlpha" operator="out"/>
<feColorMatrix type="matrix" values="0 0 0 0 0 0 0 0 0 0 0 0 0 0 0 0 0 0 0.25 0"/>
<feBlend mode="normal" in2="effect1_dropShadow_18_20704" result="effect2_dropShadow_18_20704"/>
<feBlend mode="normal" in="SourceGraphic" in2="effect2_dropShadow_18_20704" result="shape"/>
</filter>
</defs>
</svg>
