<svg width="20" height="18" viewBox="0 0 20 18" fill="none" xmlns="http://www.w3.org/2000/svg">
<path fill-rule="evenodd" clip-rule="evenodd" d="M0 7C0 9.2272 1.04018 11.2115 2.66125 12.4936C2.7935 12.2821 2.93191 12.0889 3.06158 11.9205C3.28891 11.6254 3.51252 11.3766 3.67794 11.2024C3.76148 11.1144 3.83229 11.0433 3.88408 10.9923L3.97831 10.9017C4.55412 10.3661 5.44588 10.3661 6.02169 10.9017L6.11592 10.9923C6.16771 11.0433 6.23852 11.1144 6.32206 11.2024C6.48748 11.3766 6.71109 11.6254 6.93842 11.9205C7.16243 12.2114 7.4125 12.5762 7.61185 12.9818C7.74847 13.2598 7.8868 13.608 7.95551 14H8.0012C8.0215 13.9729 8.0416 13.9465 8.0616 13.9205C8.2889 13.6254 8.5125 13.3766 8.6779 13.2024C8.7615 13.1144 8.8323 13.0433 8.8841 12.9923L8.9783 12.9017C9.5541 12.3661 10.4459 12.3661 11.0217 12.9017L11.1159 12.9923C11.1677 13.0433 11.2385 13.1144 11.3221 13.2024C11.4875 13.3766 11.7111 13.6254 11.9384 13.9205C11.9584 13.9465 11.9785 13.9729 11.9988 14H12.0445C12.1132 13.608 12.2515 13.2598 12.3882 12.9818C12.5875 12.5762 12.8376 12.2114 13.0616 11.9205C13.2889 11.6254 13.5125 11.3766 13.6779 11.2024C13.7615 11.1144 13.8323 11.0433 13.8841 10.9923L13.9783 10.9017C14.5541 10.3661 15.4459 10.3661 16.0217 10.9017L16.1159 10.9923C16.1677 11.0433 16.2385 11.1144 16.3221 11.2024C16.4875 11.3766 16.7111 11.6254 16.9384 11.9205C17.1624 12.2114 17.4125 12.5762 17.6118 12.9818C17.6457 13.0507 17.6796 13.1238 17.7126 13.2009C19.0891 12.3103 20 10.7615 20 9C20 6.23858 17.7614 4 15 4C14.4547 4 13.9299 4.08728 13.4386 4.24864C12.3696 1.75042 9.8892 0 7 0C3.13401 0 0 3.13401 0 7ZM5 16C5.82843 16 6.5 15.6046 6.5 14.5C6.5 13.3954 5 12 5 12C5 12 3.5 13.3954 3.5 14.5C3.5 15.6046 4.17157 16 5 16ZM16.5 14.5C16.5 15.6046 15.8284 16 15 16C14.1716 16 13.5 15.6046 13.5 14.5C13.5 13.3954 15 12 15 12C15 12 16.5 13.3954 16.5 14.5ZM10 18C10.8284 18 11.5 17.6046 11.5 16.5C11.5 15.3954 10 14 10 14C10 14 8.5 15.3954 8.5 16.5C8.5 17.6046 9.1716 18 10 18Z" fill="#28303F"/>
</svg>
