<svg width="61" height="61" viewBox="0 0 61 61" fill="none" xmlns="http://www.w3.org/2000/svg">
<g opacity="0.2">
<path d="M30.5649 60.5C47.1297 60.5 60.5 47.0649 60.5 30.4351C60.5 13.8703 47.1297 0.5 30.5649 0.5M30.5649 60.5C13.9351 60.5 0.5 47.0649 0.5 30.4351C0.5 13.8703 13.9351 0.5 30.5649 0.5M30.5649 60.5V0.5M56.5303 15.5H4.48919M56.6973 45.1351H4.32216M0.662162 30.5H60.3378" stroke="white" stroke-linecap="round" stroke-linejoin="round"/>
<path d="M30.5324 60.5C38.8157 60.5 45.5 47.0649 45.5 30.4351C45.5 13.8703 38.8157 0.5 30.5324 0.5C22.2168 0.5 15.5 13.8703 15.5 30.4351C15.5 47.0649 22.2168 60.5 30.5324 60.5Z" stroke="white" stroke-linecap="round" stroke-linejoin="round"/>
</g>
</svg>
