<svg width="88" height="87" viewBox="0 0 88 87" fill="none" xmlns="http://www.w3.org/2000/svg">
<g filter="url(#filter0_dd_9_4982)">
<path d="M70.1729 40.8023C77.8094 40.8023 84 34.6116 84 26.9751C84 19.3386 77.8094 13.1479 70.1729 13.1479C62.5363 13.1479 56.3457 19.3386 56.3457 26.9751C56.3457 34.6116 62.5363 40.8023 70.1729 40.8023Z" fill="#FFBC57"/>
<path d="M38.2718 24.7037C44.8174 24.7037 50.1236 19.3974 50.1236 12.8519C50.1236 6.30625 44.8174 1 38.2718 1C31.7262 1 26.4199 6.30625 26.4199 12.8519C26.4199 19.3974 31.7262 24.7037 38.2718 24.7037Z" fill="#FFBC57"/>
<path d="M23.7531 78.5308C34.6624 78.5308 43.5062 69.6871 43.5062 58.7777C43.5062 47.8684 34.6624 39.0247 23.7531 39.0247C12.8438 39.0247 4 47.8684 4 58.7777C4 69.6871 12.8438 78.5308 23.7531 78.5308Z" fill="#FFBC57"/>
<path d="M73.0361 41.6289L67.9003 39.4561H54.0732C51.9003 39.4561 50.1226 37.6783 50.1226 35.5055V20.6907H43.209V60.1968H70.6658C71.4559 60.1968 72.246 59.9006 72.7398 59.308L73.925 58.1228C74.5176 57.5302 74.8139 56.8388 74.8139 56.0487V44.2956C74.8139 43.1104 74.1226 42.024 73.0361 41.6289Z" fill="white"/>
<path d="M67.1102 41.6289L61.9744 39.4561H54.0732C51.9003 39.4561 50.1226 37.6783 50.1226 35.5055V20.6907H43.209V60.1968H64.7398C65.53 60.1968 66.3201 59.9006 66.8139 59.308L67.9991 58.1228C68.5917 57.5302 68.888 56.8388 68.888 56.0487V44.2956C68.888 43.1104 68.1966 42.024 67.1102 41.6289Z" fill="white"/>
<path d="M64.9375 47.3574L67.9005 53.2833H74.814V47.3574H64.9375Z" fill="white"/>
<path d="M64.9375 47.3574L66.9128 51.308H70.8634C71.456 51.308 71.8511 50.913 71.8511 50.3204V47.3574H64.9375Z" fill="white"/>
<path d="M74.8138 53.9748H67.9003C67.604 53.9748 67.4064 53.7773 67.2089 53.5797L64.2459 47.6538C64.1472 47.4563 64.1472 47.16 64.2459 46.9624C64.3447 46.7649 64.641 46.5674 64.8385 46.5674H74.7151C75.1101 46.5674 75.5052 46.8637 75.5052 47.3575V53.2834C75.604 53.6785 75.3077 53.9748 74.8138 53.9748ZM68.3941 52.4933H74.1225V48.0489H66.2213L68.3941 52.4933Z" fill="#2B2929"/>
<path d="M54.0737 39.4561H67.9008L60.2959 23.9499C59.3082 21.9746 57.2342 20.6907 54.9626 20.6907H50.123V35.5055C50.123 37.6783 51.9008 39.4561 54.0737 39.4561Z" fill="white"/>
<path d="M60.2959 23.9499C59.3082 21.9746 57.2342 20.6907 54.9626 20.6907H50.123C52.2959 20.6907 54.37 21.9746 55.3576 23.9499L62.9626 39.4561H67.9008L60.2959 23.9499Z" fill="white"/>
<path d="M67.8999 40.1478H54.0728C51.5049 40.1478 49.332 38.0737 49.332 35.5058V20.691C49.332 20.2959 49.6283 19.9009 50.1222 19.9009H54.9617C57.5296 19.9009 59.8012 21.2836 60.9864 23.654L68.5913 39.1601C68.6901 39.3577 68.6901 39.654 68.5913 39.8515C68.3938 40.049 68.1962 40.1478 67.8999 40.1478ZM50.9123 21.3824V35.5058C50.9123 37.2836 52.3938 38.6663 54.1715 38.6663H66.8135L59.7024 24.2466C58.8135 22.4688 57.0357 21.3824 55.0604 21.3824H50.9123Z" fill="#2B2929"/>
<path d="M13.5808 12.7896C12.4944 12.7896 11.6055 13.6784 11.6055 14.7649V58.2216C11.6055 59.3081 12.4944 60.197 13.5808 60.197H43.2104V14.7649C43.2104 13.6784 42.3215 12.7896 41.2351 12.7896H13.5808Z" fill="white"/>
<path d="M13.5808 12.7896C12.4944 12.7896 11.6055 13.6784 11.6055 14.7649V55.2587H35.3092C36.3956 55.2587 37.2845 54.3698 37.2845 53.2834V12.7896H13.5808Z" fill="white"/>
<path d="M43.2095 60.8886H13.5799C12.0984 60.8886 10.8145 59.7035 10.8145 58.1232V14.6664C10.9132 13.1849 12.0984 11.9998 13.5799 11.9998H41.2342C42.7157 11.9998 43.9996 13.1849 43.9996 14.7652V60.1973C43.9996 60.5923 43.7033 60.8886 43.2095 60.8886ZM13.5799 13.4812C12.8885 13.4812 12.2959 14.0738 12.2959 14.7652V58.222C12.2959 58.9133 12.8885 59.5059 13.5799 59.5059H42.5182V14.7652C42.5182 14.0738 41.9256 13.4812 41.2342 13.4812H13.5799Z" fill="#2B2929"/>
<path d="M70.6668 60.8884H43.21C42.815 60.8884 42.4199 60.5921 42.4199 60.0983V20.5921C42.4199 20.1971 42.7162 19.802 43.21 19.802H50.1236C50.5187 19.802 50.9137 20.0983 50.9137 20.5921V35.4069C50.9137 37.1847 52.3952 38.5674 54.173 38.5674H68.0002C68.0989 38.5674 68.1977 38.5674 68.2965 38.6662L73.4323 40.839C74.815 41.4316 75.7039 42.7156 75.7039 44.1971V55.8514C75.7039 56.839 75.3088 57.7279 74.6175 58.518L73.4323 59.7032C72.5434 60.4934 71.6545 60.8884 70.6668 60.8884ZM44.0002 59.4069H70.6668C71.2594 59.4069 71.852 59.2094 72.2471 58.7156L73.4323 57.5304C73.8273 57.1353 74.1236 56.5427 74.1236 55.9501V44.2958C74.1236 43.4069 73.6298 42.6168 72.7409 42.2218L67.8026 40.0489H54.0742C51.5063 40.0489 49.3335 37.9748 49.3335 35.4069V21.3822H43.9014V59.4069H44.0002Z" fill="#2B2929"/>
<path d="M27.4064 66.1228C30.6792 66.1228 33.3323 63.4697 33.3323 60.1969C33.3323 56.9241 30.6792 54.271 27.4064 54.271C24.1336 54.271 21.4805 56.9241 21.4805 60.1969C21.4805 63.4697 24.1336 66.1228 27.4064 66.1228Z" fill="white"/>
<path d="M30.5675 55.0613C31.1601 55.9502 31.4564 57.0366 31.4564 58.123C31.4564 61.3823 28.7897 64.0489 25.5305 64.0489C24.4441 64.0489 23.3576 63.7526 22.4688 63.16C23.5552 64.8391 25.3329 66.0242 27.5058 66.0242C30.765 66.0242 33.4317 63.3576 33.4317 60.0983C33.3329 58.0242 32.2465 56.1477 30.5675 55.0613Z" fill="white"/>
<path d="M27.4075 66.8142C23.7531 66.8142 20.6914 63.8512 20.6914 60.0981C20.6914 56.4438 23.6544 53.3821 27.4075 53.3821C31.1605 53.3821 34.1235 56.345 34.1235 60.0981C34.1235 63.8512 31.1605 66.8142 27.4075 66.8142ZM27.4075 54.9623C24.5433 54.9623 22.1729 57.3327 22.1729 60.1969C22.1729 63.0611 24.5433 65.4315 27.4075 65.4315C30.2717 65.4315 32.642 63.0611 32.642 60.1969C32.642 57.3327 30.2717 54.9623 27.4075 54.9623Z" fill="#2B2929"/>
<path d="M27.4069 62.1723C28.4979 62.1723 29.3823 61.2879 29.3823 60.197C29.3823 59.1061 28.4979 58.2217 27.4069 58.2217C26.316 58.2217 25.4316 59.1061 25.4316 60.197C25.4316 61.2879 26.316 62.1723 27.4069 62.1723Z" fill="white"/>
<path d="M27.408 62.8636C25.9265 62.8636 24.6426 61.6784 24.6426 60.0982C24.6426 58.6167 25.8278 57.3328 27.408 57.3328C28.9883 57.3328 30.1734 58.5179 30.1734 60.0982C30.1734 61.6784 28.9883 62.8636 27.408 62.8636ZM27.408 58.913C26.7167 58.913 26.1241 59.5056 26.1241 60.197C26.1241 60.8883 26.7167 61.4809 27.408 61.4809C28.0994 61.4809 28.692 60.8883 28.692 60.197C28.692 59.5056 28.0994 58.913 27.408 58.913Z" fill="#2B2929"/>
<path d="M59.0119 66.1228C62.2847 66.1228 64.9378 63.4697 64.9378 60.1969C64.9378 56.9241 62.2847 54.271 59.0119 54.271C55.7391 54.271 53.0859 56.9241 53.0859 60.1969C53.0859 63.4697 55.7391 66.1228 59.0119 66.1228Z" fill="white"/>
<path d="M62.173 55.0613C62.7656 55.9502 63.0619 57.0366 63.0619 58.123C63.0619 61.3823 60.3952 64.0489 57.1359 64.0489C56.0495 64.0489 54.9631 63.7526 54.0742 63.16C55.1606 64.8391 56.9384 66.0242 59.1113 66.0242C62.3705 66.0242 65.0372 63.3576 65.0372 60.0983C64.9384 58.0242 63.852 56.1477 62.173 55.0613Z" fill="white"/>
<path d="M59.0129 66.8142C55.3586 66.8142 52.2969 63.8512 52.2969 60.0981C52.2969 56.4438 55.2598 53.3821 59.0129 53.3821C62.6672 53.3821 65.729 56.345 65.729 60.0981C65.729 63.8512 62.766 66.8142 59.0129 66.8142ZM59.0129 54.9623C56.1487 54.9623 53.7784 57.3327 53.7784 60.1969C53.7784 63.0611 56.1487 65.4315 59.0129 65.4315C61.8771 65.4315 64.2475 63.0611 64.2475 60.1969C64.2475 57.3327 61.8771 54.9623 59.0129 54.9623Z" fill="#2B2929"/>
<path d="M59.0124 62.1723C60.1034 62.1723 60.9877 61.2879 60.9877 60.197C60.9877 59.1061 60.1034 58.2217 59.0124 58.2217C57.9215 58.2217 57.0371 59.1061 57.0371 60.197C57.0371 61.2879 57.9215 62.1723 59.0124 62.1723Z" fill="white"/>
<path d="M59.0115 62.8636C57.53 62.8636 56.2461 61.6784 56.2461 60.0982C56.2461 58.6167 57.4313 57.3328 59.0115 57.3328C60.493 57.3328 61.777 58.5179 61.777 60.0982C61.777 61.6784 60.5918 62.8636 59.0115 62.8636ZM59.0115 58.913C58.3202 58.913 57.7276 59.5056 57.7276 60.197C57.7276 60.8883 58.3202 61.4809 59.0115 61.4809C59.7029 61.4809 60.2955 60.8883 60.2955 60.197C60.2955 59.5056 59.7029 58.913 59.0115 58.913Z" fill="#2B2929"/>
<path d="M55.0611 44.0983H51.1104C50.7154 44.0983 50.3203 43.802 50.3203 43.3082C50.3203 42.9131 50.6166 42.5181 51.1104 42.5181H55.0611C55.4561 42.5181 55.8512 42.8144 55.8512 43.3082C55.8512 43.802 55.5549 44.0983 55.0611 44.0983Z" fill="#2B2929"/>
<path d="M38.2705 38.1723H16.5421C16.147 38.1723 15.752 37.876 15.752 37.3822C15.752 36.9871 16.0482 36.592 16.5421 36.592H38.2705C38.6655 36.592 39.0606 36.8883 39.0606 37.3822C39.0606 37.876 38.7643 38.1723 38.2705 38.1723Z" fill="#FFBC57"/>
<path d="M38.2705 44.0983H16.5421C16.147 44.0983 15.752 43.802 15.752 43.3082C15.752 42.9131 16.0482 42.5181 16.5421 42.5181H38.2705C38.6655 42.5181 39.0606 42.8144 39.0606 43.3082C39.0606 43.802 38.7643 44.0983 38.2705 44.0983Z" fill="#FFBC57"/>
<path d="M38.2705 50.0241H16.5421C16.147 50.0241 15.752 49.7278 15.752 49.234C15.752 48.8389 16.0482 48.4438 16.5421 48.4438H38.2705C38.6655 48.4438 39.0606 48.7401 39.0606 49.234C39.0606 49.7278 38.7643 50.0241 38.2705 50.0241Z" fill="#FFBC57"/>
<path d="M38.2705 32.2463H16.5421C16.147 32.2463 15.752 31.95 15.752 31.4561C15.752 31.0611 16.0482 30.666 16.5421 30.666H38.2705C38.6655 30.666 39.0606 30.9623 39.0606 31.4561C39.0606 31.95 38.7643 32.2463 38.2705 32.2463Z" fill="#FFBC57"/>
<path d="M38.2705 26.3205H16.5421C16.147 26.3205 15.752 26.0242 15.752 25.5304C15.752 25.1353 16.0482 24.7402 16.5421 24.7402H38.2705C38.6655 24.7402 39.0606 25.0365 39.0606 25.5304C39.0606 26.0242 38.7643 26.3205 38.2705 26.3205Z" fill="#2B2929"/>
<path d="M38.2705 20.3945H16.5421C16.147 20.3945 15.752 20.0982 15.752 19.6043C15.752 19.2093 16.0482 18.8142 16.5421 18.8142H38.2705C38.6655 18.8142 39.0606 19.1105 39.0606 19.6043C39.0606 20.0982 38.7643 20.3945 38.2705 20.3945Z" fill="#2B2929"/>
</g>
<defs>
<filter id="filter0_dd_9_4982" x="0" y="0" width="88" height="88" filterUnits="userSpaceOnUse" color-interpolation-filters="sRGB">
<feFlood flood-opacity="0" result="BackgroundImageFix"/>
<feColorMatrix in="SourceAlpha" type="matrix" values="0 0 0 0 0 0 0 0 0 0 0 0 0 0 0 0 0 0 127 0" result="hardAlpha"/>
<feOffset dy="4"/>
<feGaussianBlur stdDeviation="2"/>
<feComposite in2="hardAlpha" operator="out"/>
<feColorMatrix type="matrix" values="0 0 0 0 0 0 0 0 0 0 0 0 0 0 0 0 0 0 0.25 0"/>
<feBlend mode="normal" in2="BackgroundImageFix" result="effect1_dropShadow_9_4982"/>
<feColorMatrix in="SourceAlpha" type="matrix" values="0 0 0 0 0 0 0 0 0 0 0 0 0 0 0 0 0 0 127 0" result="hardAlpha"/>
<feOffset dy="4"/>
<feGaussianBlur stdDeviation="2"/>
<feComposite in2="hardAlpha" operator="out"/>
<feColorMatrix type="matrix" values="0 0 0 0 0 0 0 0 0 0 0 0 0 0 0 0 0 0 0.25 0"/>
<feBlend mode="normal" in2="effect1_dropShadow_9_4982" result="effect2_dropShadow_9_4982"/>
<feBlend mode="normal" in="SourceGraphic" in2="effect2_dropShadow_9_4982" result="shape"/>
</filter>
</defs>
</svg>
