<svg width="108" height="19" viewBox="0 0 108 19" fill="none" xmlns="http://www.w3.org/2000/svg">
<path d="M5.35194 1.968C4.34394 2 3.56794 2.384 3.02394 3.12C2.49594 3.856 2.23194 5.128 2.23194 6.936C2.23194 7.528 2.28794 7.944 2.39994 8.184C2.51194 8.408 2.56794 8.536 2.56794 8.568C1.70394 8.568 1.05594 8.392 0.623936 8.04C0.207936 7.672 -6.44401e-05 7.072 -6.44401e-05 6.24C-6.44401e-05 5.104 0.279936 4.072 0.839936 3.144C1.39994 2.2 2.28794 1.44 3.50394 0.863999C4.73594 0.287999 6.29594 -1.43051e-06 8.18394 -1.43051e-06C8.56794 -1.43051e-06 9.07994 0.0399985 9.71994 0.119998C10.8719 0.231999 11.6879 0.287999 12.1679 0.287999C13.0159 0.287999 13.7359 0.191999 14.3279 -1.43051e-06C14.2799 0.143999 14.1919 0.463999 14.0639 0.959999C13.9359 1.44 13.7039 1.856 13.3679 2.208C13.0479 2.544 12.6079 2.768 12.0479 2.88C11.1039 2.88 9.98394 2.728 8.68794 2.424L7.67994 7.2H11.1839L10.7999 8.976H7.29594L5.35194 18H1.89594L5.35194 1.968ZM14.3036 18.096C13.1196 18.096 12.1836 17.792 11.4956 17.184C10.8076 16.576 10.4636 15.616 10.4636 14.304C10.4636 13.216 10.6876 12.008 11.1356 10.68C11.5836 9.352 12.3036 8.208 13.2956 7.248C14.2876 6.272 15.5356 5.784 17.0396 5.784C19.0876 5.784 20.1116 7.064 20.1116 9.624V9.648C20.1596 9.664 20.2476 9.672 20.3756 9.672C20.9036 9.672 21.5116 9.536 22.1996 9.264C22.8876 8.976 23.5116 8.632 24.0716 8.232L24.2876 8.88C23.8236 9.376 23.2156 9.8 22.4636 10.152C21.7276 10.488 20.9196 10.728 20.0396 10.872C19.9116 12.328 19.5836 13.6 19.0556 14.688C18.5276 15.776 17.8476 16.616 17.0156 17.208C16.1836 17.8 15.2796 18.096 14.3036 18.096ZM15.2636 15.936C15.6476 15.936 16.0316 15.72 16.4156 15.288C16.7996 14.84 17.1356 14.24 17.4236 13.488C17.7116 12.72 17.9196 11.872 18.0476 10.944C17.6156 10.848 17.3996 10.512 17.3996 9.936C17.3996 9.28 17.6476 8.848 18.1436 8.64C18.1116 8.112 18.0316 7.752 17.9036 7.56C17.7756 7.352 17.5516 7.248 17.2316 7.248C16.7036 7.248 16.1916 7.632 15.6956 8.4C15.1996 9.168 14.7996 10.088 14.4956 11.16C14.1916 12.232 14.0396 13.176 14.0396 13.992C14.0396 14.76 14.1276 15.28 14.3036 15.552C14.4796 15.808 14.7996 15.936 15.2636 15.936ZM24.8504 18.096C23.6664 18.096 22.7304 17.792 22.0424 17.184C21.3544 16.576 21.0104 15.616 21.0104 14.304C21.0104 13.216 21.2344 12.008 21.6824 10.68C22.1304 9.352 22.8504 8.208 23.8424 7.248C24.8344 6.272 26.0824 5.784 27.5864 5.784C29.6344 5.784 30.6584 7.064 30.6584 9.624V9.648C30.7064 9.664 30.7944 9.672 30.9224 9.672C31.4504 9.672 32.0584 9.536 32.7464 9.264C33.4344 8.976 34.0584 8.632 34.6184 8.232L34.8344 8.88C34.3704 9.376 33.7624 9.8 33.0104 10.152C32.2744 10.488 31.4664 10.728 30.5864 10.872C30.4584 12.328 30.1304 13.6 29.6024 14.688C29.0744 15.776 28.3944 16.616 27.5624 17.208C26.7304 17.8 25.8264 18.096 24.8504 18.096ZM25.8104 15.936C26.1944 15.936 26.5784 15.72 26.9624 15.288C27.3464 14.84 27.6824 14.24 27.9704 13.488C28.2584 12.72 28.4664 11.872 28.5944 10.944C28.1624 10.848 27.9464 10.512 27.9464 9.936C27.9464 9.28 28.1944 8.848 28.6904 8.64C28.6584 8.112 28.5784 7.752 28.4504 7.56C28.3224 7.352 28.0984 7.248 27.7784 7.248C27.2504 7.248 26.7384 7.632 26.2424 8.4C25.7464 9.168 25.3464 10.088 25.0424 11.16C24.7384 12.232 24.5864 13.176 24.5864 13.992C24.5864 14.76 24.6744 15.28 24.8504 15.552C25.0264 15.808 25.3464 15.936 25.8104 15.936ZM34.7733 18.144C33.8613 18.144 33.1013 17.832 32.4933 17.208C31.8853 16.584 31.5813 15.608 31.5813 14.28C31.5813 13.096 31.8133 11.856 32.2773 10.56C32.7573 9.248 33.4613 8.144 34.3893 7.248C35.3333 6.336 36.4533 5.88 37.7493 5.88C38.4053 5.88 38.8933 5.992 39.2133 6.216C39.5333 6.44 39.6933 6.736 39.6933 7.104V7.2L40.8693 1.68L44.4213 1.2L41.6613 14.16C41.5973 14.4 41.5653 14.656 41.5653 14.928C41.5653 15.248 41.6373 15.48 41.7813 15.624C41.9413 15.752 42.1973 15.816 42.5493 15.816C42.9973 15.816 43.3813 15.624 43.7013 15.24C44.0373 14.856 44.3013 14.344 44.4933 13.704H45.5013C44.5253 16.568 42.9173 18 40.6773 18C40.0213 18 39.4853 17.824 39.0693 17.472C38.6693 17.12 38.4213 16.608 38.3253 15.936C37.9093 16.576 37.4053 17.104 36.8133 17.52C36.2373 17.936 35.5573 18.144 34.7733 18.144ZM36.3333 15.816C36.7173 15.816 37.1013 15.64 37.4853 15.288C37.8853 14.936 38.1573 14.448 38.3013 13.824V13.704L39.4773 8.208C39.3333 7.648 39.0053 7.368 38.4933 7.368C37.8533 7.368 37.2773 7.744 36.7653 8.496C36.2533 9.232 35.8533 10.128 35.5653 11.184C35.2773 12.224 35.1333 13.144 35.1333 13.944C35.1333 14.744 35.2453 15.256 35.4693 15.48C35.7093 15.704 35.9973 15.816 36.3333 15.816ZM48.5107 4.704C47.9827 4.704 47.5347 4.52 47.1667 4.152C46.7987 3.784 46.6147 3.336 46.6147 2.808C46.6147 2.28 46.7987 1.832 47.1667 1.464C47.5347 1.08 47.9827 0.887999 48.5107 0.887999C49.0387 0.887999 49.4867 1.08 49.8547 1.464C50.2387 1.832 50.4307 2.28 50.4307 2.808C50.4307 3.336 50.2387 3.784 49.8547 4.152C49.4867 4.52 49.0387 4.704 48.5107 4.704ZM46.8787 18.144C46.1107 18.144 45.4867 17.904 45.0067 17.424C44.5427 16.944 44.3107 16.224 44.3107 15.264C44.3107 14.864 44.3747 14.344 44.5027 13.704L46.1347 6H49.5907L47.8627 14.16C47.7987 14.4 47.7667 14.656 47.7667 14.928C47.7667 15.248 47.8387 15.48 47.9827 15.624C48.1427 15.752 48.3987 15.816 48.7507 15.816C49.2147 15.816 49.6467 15.624 50.0467 15.24C50.4467 14.84 50.7347 14.328 50.9107 13.704H51.9187C51.3267 15.432 50.5667 16.608 49.6387 17.232C48.7107 17.84 47.7907 18.144 46.8787 18.144ZM54.3331 18.144C53.1491 18.144 52.2291 17.84 51.5731 17.232C50.9171 16.608 50.5891 15.64 50.5891 14.328C50.5891 13.224 50.8051 12.008 51.2371 10.68C51.6691 9.352 52.3731 8.208 53.3491 7.248C54.3251 6.272 55.5651 5.784 57.0691 5.784C58.8291 5.784 59.7091 6.552 59.7091 8.088C59.7091 8.984 59.4531 9.808 58.9411 10.56C58.4291 11.312 57.7491 11.92 56.9011 12.384C56.0531 12.832 55.1491 13.088 54.1891 13.152C54.1571 13.632 54.1411 13.952 54.1411 14.112C54.1411 14.896 54.2771 15.432 54.5491 15.72C54.8211 15.992 55.2611 16.128 55.8691 16.128C56.7331 16.128 57.4691 15.928 58.0771 15.528C58.7011 15.128 59.3811 14.52 60.1171 13.704H60.9331C59.1571 16.664 56.9571 18.144 54.3331 18.144ZM54.3811 12C54.9731 11.968 55.5331 11.76 56.0611 11.376C56.6051 10.992 57.0371 10.504 57.3571 9.912C57.6931 9.32 57.8611 8.696 57.8611 8.04C57.8611 7.384 57.6611 7.056 57.2611 7.056C56.6851 7.056 56.1171 7.56 55.5571 8.568C55.0131 9.576 54.6211 10.72 54.3811 12ZM62.4881 18.144C61.7201 18.144 61.0961 17.904 60.6161 17.424C60.1521 16.944 59.9201 16.224 59.9201 15.264C59.9201 14.864 59.9841 14.344 60.1121 13.704L62.6801 1.68L66.2321 1.2L63.4721 14.16C63.4081 14.4 63.3761 14.656 63.3761 14.928C63.3761 15.248 63.4481 15.48 63.5921 15.624C63.7521 15.752 64.0081 15.816 64.3601 15.816C64.8241 15.816 65.2561 15.624 65.6561 15.24C66.0561 14.84 66.3441 14.328 66.5201 13.704H67.5281C66.9361 15.432 66.1761 16.608 65.2481 17.232C64.3201 17.84 63.4001 18.144 62.4881 18.144ZM69.3905 18.144C68.4785 18.144 67.7185 17.832 67.1105 17.208C66.5025 16.584 66.1985 15.608 66.1985 14.28C66.1985 13.096 66.4305 11.856 66.8945 10.56C67.3745 9.248 68.0785 8.144 69.0065 7.248C69.9505 6.336 71.0705 5.88 72.3665 5.88C73.0225 5.88 73.5105 5.992 73.8305 6.216C74.1505 6.44 74.3105 6.736 74.3105 7.104V7.272L74.5745 6H78.0305L76.3025 14.16C76.2385 14.4 76.2065 14.656 76.2065 14.928C76.2065 15.616 76.5345 15.96 77.1905 15.96C77.6385 15.96 78.0225 15.752 78.3425 15.336C78.6785 14.92 78.9425 14.376 79.1345 13.704H80.1425C79.5505 15.432 78.8145 16.608 77.9345 17.232C77.0705 17.84 76.1985 18.144 75.3185 18.144C74.6465 18.144 74.1025 17.96 73.6865 17.592C73.2865 17.208 73.0465 16.656 72.9665 15.936C72.5025 16.592 71.9825 17.128 71.4065 17.544C70.8465 17.944 70.1745 18.144 69.3905 18.144ZM70.9505 15.816C71.3505 15.816 71.7425 15.632 72.1265 15.264C72.5265 14.88 72.7985 14.36 72.9425 13.704L74.0945 8.28C74.0945 8.072 74.0145 7.872 73.8545 7.68C73.6945 7.472 73.4465 7.368 73.1105 7.368C72.4705 7.368 71.8945 7.744 71.3825 8.496C70.8705 9.232 70.4705 10.128 70.1825 11.184C69.8945 12.224 69.7505 13.144 69.7505 13.944C69.7505 14.744 69.8625 15.256 70.0865 15.48C70.3265 15.704 70.6145 15.816 70.9505 15.816ZM87.8073 18.144C86.8313 18.144 86.1113 17.888 85.6473 17.376C85.1993 16.848 84.9753 16.2 84.9753 15.432C84.9753 15.096 85.0153 14.72 85.0953 14.304C85.1753 13.872 85.2553 13.456 85.3353 13.056C85.4313 12.656 85.4953 12.4 85.5273 12.288C85.6553 11.728 85.7753 11.176 85.8873 10.632C85.9993 10.088 86.0553 9.648 86.0553 9.312C86.0553 8.496 85.7673 8.088 85.1913 8.088C84.7753 8.088 84.4073 8.296 84.0873 8.712C83.7673 9.112 83.5113 9.64 83.3193 10.296L81.6873 18H78.2313L80.7753 6H84.2313L83.9673 7.248C84.7673 6.352 85.7033 5.904 86.7753 5.904C87.5913 5.904 88.2393 6.128 88.7193 6.576C89.1993 7.024 89.4393 7.704 89.4393 8.616C89.4393 9.08 89.3833 9.6 89.2713 10.176C89.1593 10.736 88.9993 11.424 88.7913 12.24C88.6633 12.736 88.5433 13.224 88.4313 13.704C88.3353 14.168 88.2873 14.536 88.2873 14.808C88.2873 15.128 88.3593 15.376 88.5033 15.552C88.6473 15.728 88.8953 15.816 89.2473 15.816C89.7273 15.816 90.1113 15.648 90.3993 15.312C90.6873 14.96 90.9753 14.424 91.2633 13.704H92.2713C91.6793 15.464 90.9913 16.648 90.2073 17.256C89.4393 17.848 88.6393 18.144 87.8073 18.144ZM94.1405 18.144C93.2285 18.144 92.4685 17.832 91.8605 17.208C91.2525 16.584 90.9485 15.608 90.9485 14.28C90.9485 13.096 91.1805 11.856 91.6445 10.56C92.1245 9.248 92.8285 8.144 93.7565 7.248C94.7005 6.336 95.8205 5.88 97.1165 5.88C97.7725 5.88 98.2605 5.992 98.5805 6.216C98.9005 6.44 99.0605 6.736 99.0605 7.104V7.2L100.236 1.68L103.788 1.2L101.028 14.16C100.964 14.4 100.932 14.632 100.932 14.856C100.932 15.496 101.26 15.816 101.916 15.816C102.204 15.816 102.46 15.768 102.684 15.672C102.62 16.472 102.332 17.088 101.82 17.52C101.324 17.936 100.732 18.144 100.044 18.144C99.4045 18.144 98.8605 17.984 98.4125 17.664C97.9805 17.328 97.6925 16.824 97.5485 16.152C96.5885 17.48 95.4525 18.144 94.1405 18.144ZM95.7005 15.816C96.0525 15.816 96.4045 15.664 96.7565 15.36C97.1245 15.056 97.3965 14.632 97.5725 14.088L97.6685 13.704L98.8445 8.208C98.7005 7.648 98.3725 7.368 97.8605 7.368C97.2205 7.368 96.6445 7.744 96.1325 8.496C95.6205 9.232 95.2205 10.128 94.9325 11.184C94.6445 12.224 94.5005 13.144 94.5005 13.944C94.5005 14.744 94.6125 15.256 94.8365 15.48C95.0765 15.704 95.3645 15.816 95.7005 15.816Z" fill="black"/>
<path d="M105.315 18.096C104.787 18.096 104.339 17.912 103.971 17.544C103.603 17.176 103.419 16.728 103.419 16.2C103.419 15.672 103.603 15.224 103.971 14.856C104.339 14.472 104.787 14.28 105.315 14.28C105.843 14.28 106.291 14.472 106.659 14.856C107.043 15.224 107.235 15.672 107.235 16.2C107.235 16.728 107.043 17.176 106.659 17.544C106.291 17.912 105.843 18.096 105.315 18.096Z" fill="#FF7426"/>
</svg>
